<?xml version="1.0" encoding="utf-8"?>
<!-- Generator: Adobe Illustrator 27.3.1, SVG Export Plug-In . SVG Version: 6.00 Build 0)  -->
<svg version="1.1" id="Layer_1" xmlns="http://www.w3.org/2000/svg" xmlns:xlink="http://www.w3.org/1999/xlink" x="0px" y="0px"
	 width="188px" height="50.9px" viewBox="0 0 188 50.9" style="enable-background:new 0 0 188 50.9;" xml:space="preserve">
<style type="text/css">
	.st0{fill:url(#SVGID_1_);}
	.st1{fill:#F2F2F2;}
	.st2{fill:url(#SVGID_00000183227793082812341350000016627737474213228184_);}
	.st3{fill:url(#SVGID_00000130628619413021521970000005026946312258234028_);}
</style>
<linearGradient id="SVGID_1_" gradientUnits="userSpaceOnUse" x1="106.0046" y1="-100.2724" x2="178.3448" y2="-27.9322">
	<stop  offset="7.077350e-02" style="stop-color:#90278E"/>
	<stop  offset="0.9876" style="stop-color:#EB008B"/>
</linearGradient>
<path class="st0" d="M106.3-32.4h56c6.4,0,11.5-5.2,11.5-11.5v-56c0-6.4-5.2-11.5-11.5-11.5h-56c-6.4,0-11.5,5.2-11.5,11.5v56
	C94.8-37.6,99.9-32.4,106.3-32.4z"/>
<path class="st1" d="M126.6-70.1l1.4,16.4c0.1,1.4-0.9,2.7-2.4,2.8l-0.5,0c-1.4,0.1-2.7-0.9-2.8-2.4L121-69.6
	c-0.1-1.4-1.4-2.5-2.8-2.4l-14.7,1.3c-1.4,0.1-2.7-0.9-2.8-2.4v0c-0.1-1.4,0.9-2.7,2.4-2.8l14.7-1.3c1.4-0.1,2.5-1.4,2.4-2.8
	l-1.3-14.4c-0.1-1.4,0.9-2.7,2.4-2.8l0.5,0c1.4-0.1,2.7,0.9,2.8,2.4l1.3,14.4c0.1,1.4,1.4,2.5,2.8,2.4l14.6-1.3
	c1.4-0.1,2.7,0.9,2.8,2.4v0c0.1,1.4-0.9,2.7-2.4,2.8L129-73C127.6-72.8,126.5-71.6,126.6-70.1z M156.6-60.9l1.1,12.1
	c0.1,1.1-0.7,2-1.7,2.1l-0.3,0c-1.1,0.1-2-0.7-2.1-1.7l-1.1-12.1c-0.1-1.1-1-1.8-2.1-1.7l-10.9,1c-1.1,0.1-2-0.7-2.1-1.7v0
	c-0.1-1.1,0.7-2,1.7-2.1l10.9-1c1.1-0.1,1.8-1,1.7-2.1l-0.9-10.7c-0.1-1.1,0.7-2,1.7-2.1l0.3,0c1.1-0.1,2,0.7,2.1,1.7l0.9,10.7
	c0.1,1.1,1,1.8,2.1,1.7l7.9-0.8c1.1-0.1,2,0.7,2.1,1.7v0c0.1,1.1-0.7,2-1.7,2.1l-7.9,0.8C157.3-62.8,156.5-61.9,156.6-60.9z"/>
<path class="st1" d="M-84.5-32.4h56c6.4,0,11.5-5.2,11.5-11.5v-56c0-6.4-5.2-11.5-11.5-11.5h-56c-6.4,0-11.5,5.2-11.5,11.5v56
	C-96-37.6-90.9-32.4-84.5-32.4z"/>
<linearGradient id="SVGID_00000153688804292034798140000004515105324657187757_" gradientUnits="userSpaceOnUse" x1="-90.2136" y1="-71.9752" x2="-22.7795" y2="-71.9752">
	<stop  offset="7.077350e-02" style="stop-color:#90278E"/>
	<stop  offset="0.9876" style="stop-color:#EB008B"/>
</linearGradient>
<path style="fill:url(#SVGID_00000153688804292034798140000004515105324657187757_);" d="M-64.2-70.1l1.4,16.4
	c0.1,1.4-0.9,2.7-2.4,2.8l-0.5,0c-1.4,0.1-2.7-0.9-2.8-2.4l-1.4-16.4c-0.1-1.4-1.4-2.5-2.8-2.4l-14.7,1.3c-1.4,0.1-2.7-0.9-2.8-2.4
	v0c-0.1-1.4,0.9-2.7,2.4-2.8l14.7-1.3c1.4-0.1,2.5-1.4,2.4-2.8L-72-94.5c-0.1-1.4,0.9-2.7,2.4-2.8l0.5,0c1.4-0.1,2.7,0.9,2.8,2.4
	l1.3,14.4c0.1,1.4,1.4,2.5,2.8,2.4l14.6-1.3c1.4-0.1,2.7,0.9,2.8,2.4v0c0.1,1.4-0.9,2.7-2.4,2.8L-61.8-73
	C-63.2-72.8-64.3-71.6-64.2-70.1z M-34.2-60.9l1.1,12.1c0.1,1.1-0.7,2-1.7,2.1l-0.3,0c-1.1,0.1-2-0.7-2.1-1.7l-1.1-12.1
	c-0.1-1.1-1-1.8-2.1-1.7l-10.9,1c-1.1,0.1-2-0.7-2.1-1.7v0c-0.1-1.1,0.7-2,1.7-2.1l10.9-1c1.1-0.1,1.8-1,1.7-2.1L-40-78.8
	c-0.1-1.1,0.7-2,1.7-2.1l0.3,0c1.1-0.1,2,0.7,2.1,1.7l0.9,10.7c0.1,1.1,1,1.8,2.1,1.7l7.9-0.8c1.1-0.1,2,0.7,2.1,1.7v0
	c0.1,1.1-0.7,2-1.7,2.1l-7.9,0.8C-33.5-62.8-34.3-61.9-34.2-60.9z"/>
<linearGradient id="SVGID_00000132785698476749923760000008911307625165915835_" gradientUnits="userSpaceOnUse" x1="0" y1="25.4388" x2="187.9998" y2="25.4388">
	<stop  offset="7.077350e-02" style="stop-color:#90278E"/>
	<stop  offset="0.9876" style="stop-color:#EB008B"/>
</linearGradient>
<path style="fill:url(#SVGID_00000132785698476749923760000008911307625165915835_);" d="M25.9,9.5c-2.9,0.8-3.7,1.6-7.5,2v1.9
	c7.5-1.3,0,0.8,0,3.8v6.4c0,0.1-0.1,0.2-0.2,0.2c-0.9-0.1-1.7-0.1-2.1-0.1C7,23.7,0,30.1,0,38c0,8.6,7,12.9,11.9,12.9
	c0.6,0,1.5-0.2,2.9-1c1-0.6,2.2-1.4,3.2-2.1c0.1-0.1,0.3,0,0.3,0.2v2.8c0,0.1,0.1,0.2,0.3,0.2c4.5-1.3,6.3-2.2,11.1-2.2v-1.9
	l-1.3-0.2c-2.2-0.3-2.6-0.6-2.6-3.7V16.3C25.9,13.8,25.9,11.8,25.9,9.5L25.9,9.5z M15.2,46.4c-2.6-0.1-6.8-2.8-6.8-10.4
	c0-8.4,3.9-9.6,5.7-9.6c2.2,0,3.7,1.3,4.3,2.9c0,0,0,0.1,0,0.1v16c0,0.1,0,0.1-0.1,0.2C17.1,46.2,16.2,46.4,15.2,46.4L15.2,46.4z
	 M37.9,13.4c-2.3,0-4.2,1.7-4.2,4.1c0,2.3,2,4.1,4.2,4.1c2.4,0,4.2-1.9,4.2-4.1C42,15.1,40.2,13.4,37.9,13.4L37.9,13.4z M42,23.7
	c-3.2,0.9-6.8,1.7-10.5,2.1v1.9c2.7,0.3,3,0.6,3,4.5V42c0,4.1-0.3,4.3-3.5,4.8v2h14.6v-2C42.2,46.3,42,45.9,42,42V30.9
	C42,28.5,42,26.1,42,23.7L42,23.7z M57.8,23.6c-3.2,1-7.2,1.8-10.6,2.2v1.9c2.6,0.5,3,0.7,3,4.2v10.6c0,3.8-0.3,3.8-3.4,4.3v2h14.3
	v-2c-2.4-0.3-3.5-0.6-3.5-4.1V30.7c0-0.4,0.2-0.7,0.5-0.9c1.3-0.9,2.5-1.4,3.9-1.4c2,0,4.1,1.3,4.1,5.4v8.4c0,4-1.3,4.2-3.7,4.6v2
	h14.3v-2c-2.8-0.4-3.1-0.6-3.1-4.2v-9.5c0-5.9-3-9.3-7.7-9.3c-1.7,0-2.8,0.5-4.5,1.5c-0.7,0.4-1.3,0.8-1.9,1.2c-0.8,0.5-1.8,0-1.8-1
	C57.7,24.7,57.7,24,57.8,23.6L57.8,23.6z M88.8,23.6c-3.2,1-7.2,1.8-10.6,2.2v1.9c2.6,0.5,3,0.7,3,4.2v10.6c0,3.8-0.3,3.8-3.4,4.3v2
	h14.3v-2c-2.4-0.3-3.5-0.6-3.5-4.1V30.7c0-0.4,0.2-0.7,0.5-0.9c1.3-0.9,2.5-1.4,3.9-1.4c2,0,4.1,1.3,4.1,5.4v8.4
	c0,4-1.3,4.2-3.7,4.6v2h14.3v-2c-2.8-0.4-3.1-0.6-3.1-4.2v-9.5c0-5.9-3-9.3-7.7-9.3c-1.7,0-2.8,0.5-4.5,1.5
	c-0.7,0.4-1.3,0.8-1.9,1.2c-0.8,0.5-1.8,0-1.8-1C88.7,24.7,88.8,24,88.8,23.6L88.8,23.6z M159.8,17.5l0.9,10.5
	c0.1,0.9-0.6,1.7-1.5,1.8l-0.3,0c-0.9,0.1-1.7-0.6-1.8-1.5l-0.9-10.5c-0.1-0.9-0.9-1.6-1.8-1.5l-9.5,0.8c-0.9,0.1-1.7-0.6-1.8-1.5v0
	c-0.1-0.9,0.6-1.7,1.5-1.8l9.5-0.8c0.9-0.1,1.6-0.9,1.5-1.8l-0.8-9.3c-0.1-0.9,0.6-1.7,1.5-1.8l0.3,0c0.9-0.1,1.7,0.6,1.8,1.5
	l0.8,9.3c0.1,0.9,0.9,1.6,1.8,1.5l9.4-0.8c0.9-0.1,1.7,0.6,1.8,1.5v0c0.1,0.9-0.6,1.7-1.5,1.8l-9.4,0.8
	C160.4,15.7,159.7,16.6,159.8,17.5z M178.4,22.3l0.7,8.1c0.1,0.7-0.5,1.3-1.2,1.4l-0.2,0c-0.7,0.1-1.3-0.5-1.4-1.2l-0.7-8.1
	c-0.1-0.7-0.7-1.2-1.4-1.2l-7.3,0.6c-0.7,0.1-1.3-0.5-1.4-1.2v0c-0.1-0.7,0.5-1.3,1.2-1.4l7.3-0.6c0.7-0.1,1.2-0.7,1.2-1.4l-0.6-7.1
	c-0.1-0.7,0.5-1.3,1.2-1.4l0.2,0c0.7-0.1,1.3,0.5,1.4,1.2l0.6,7.1c0.1,0.7,0.7,1.2,1.4,1.2l7.2-0.6c0.7-0.1,1.3,0.5,1.4,1.2v0
	c0.1,0.7-0.5,1.3-1.2,1.4l-7.2,0.6C178.9,21,178.3,21.6,178.4,22.3z M118.9,23.7c-2.9,0-5.9,1.3-8.3,3.7c-2.2,2.2-4,5.9-4,9.6
	c0,6.4,4.1,11.6,11.2,11.6c2.2,0,6.5-1.1,9.8-5.9l-1-1.4c-1.9,1.7-4,2.4-6.1,2.4c-3.8,0-6.7-1.1-6.9-6.8c5.2-0.2,12.7-0.6,13.7-0.9
	c0.6-0.2,0.7-1.1,0.7-2C128.1,29.8,124.2,23.7,118.9,23.7L118.9,23.7z M113.6,33.8c0.3-4.2,2.1-6.6,4.2-6.6c2.1,0,3.6,2.7,3.5,5.4
	c0,0.9-0.3,1-1.1,1.1c-2.2,0.1-4,0.1-6.2,0.2H113.6z M139.4,23.6c-3.6,1.1-6.8,1.8-10.4,2.2v1.8c2.7,0.6,3,0.9,3,3.8v12.7
	c0,2.3-0.1,2.6-1.2,2.6c-0.2,0-0.5,0-0.9,0c-0.4,0-0.8,0-1.3,0.1v2h15.3v-2c-0.9-0.1-1.6-0.1-2.2-0.1c-0.3,0-0.5,0-0.8,0
	c-1.4,0-1.6-0.2-1.6-2.5V33.3c0-0.2,0-0.3,0.1-0.5c1-2,2.4-2.7,3.2-2.7c1,0,1.7,0.9,2.7,1.7c0.3,0.2,0.6,0.4,1.1,0.4
	c0.2,0,0.4,0,0.7-0.2c0.9-0.5,3-2.1,3-4.9c0-2-1.6-3.5-3.8-3.5c-1.8,0-3.4,1.2-5.3,3.6c-0.6,0.8-1.8,0.4-1.8-0.6V23.6L139.4,23.6z"
	/>
<path class="st1" d="M15.2,112.3c-2.9,0.8-3.7,1.6-7.5,2v1.9c7.5-1.3,0,0.8,0,3.8v6.4c0,0.1-0.1,0.2-0.2,0.2
	c-0.9-0.1-1.7-0.1-2.1-0.1c-9,0-16.1,6.3-16.1,14.3c0,8.6,7,12.9,11.9,12.9c0.6,0,1.5-0.2,2.9-1c1-0.6,2.2-1.4,3.2-2.1
	c0.1-0.1,0.3,0,0.3,0.2v2.8c0,0.1,0.1,0.2,0.3,0.2c4.5-1.3,6.3-2.2,11.1-2.2v-1.9l-1.3-0.2c-2.2-0.3-2.6-0.6-2.6-3.7v-26.6
	C15.2,116.6,15.2,114.5,15.2,112.3L15.2,112.3z M4.5,149.1c-2.6-0.1-6.8-2.8-6.8-10.4c0-8.4,3.9-9.6,5.7-9.6c2.2,0,3.7,1.3,4.3,2.9
	c0,0,0,0.1,0,0.1v16c0,0.1,0,0.1-0.1,0.2C6.4,149,5.5,149.1,4.5,149.1L4.5,149.1z M27.2,116.1c-2.3,0-4.2,1.7-4.2,4.1
	c0,2.3,2,4.1,4.2,4.1c2.4,0,4.2-1.9,4.2-4.1C31.3,117.9,29.5,116.1,27.2,116.1L27.2,116.1z M31.3,126.4c-3.2,0.9-6.8,1.7-10.5,2.1
	v1.9c2.7,0.3,3,0.6,3,4.5v9.8c0,4.1-0.3,4.3-3.5,4.8v2h14.6v-2c-3.4-0.4-3.6-0.8-3.6-4.8v-11.1C31.3,131.2,31.3,128.9,31.3,126.4
	L31.3,126.4z M47.1,126.3c-3.2,1-7.2,1.8-10.6,2.2v1.9c2.6,0.5,3,0.7,3,4.2v10.6c0,3.8-0.3,3.8-3.4,4.3v2h14.3v-2
	c-2.4-0.3-3.5-0.6-3.5-4.1v-11.9c0-0.4,0.2-0.7,0.5-0.9c1.3-0.9,2.5-1.4,3.9-1.4c2,0,4.1,1.3,4.1,5.4v8.4c0,4-1.3,4.2-3.7,4.6v2H66
	v-2c-2.8-0.4-3.1-0.6-3.1-4.2v-9.5c0-5.9-3-9.3-7.7-9.3c-1.7,0-2.8,0.5-4.5,1.5c-0.7,0.4-1.3,0.8-1.9,1.2c-0.8,0.5-1.8,0-1.8-1
	C47,127.5,47,126.7,47.1,126.3L47.1,126.3z M78.1,126.3c-3.2,1-7.2,1.8-10.6,2.2v1.9c2.6,0.5,3,0.7,3,4.2v10.6
	c0,3.8-0.3,3.8-3.4,4.3v2h14.3v-2c-2.4-0.3-3.5-0.6-3.5-4.1v-11.9c0-0.4,0.2-0.7,0.5-0.9c1.3-0.9,2.5-1.4,3.9-1.4
	c2,0,4.1,1.3,4.1,5.4v8.4c0,4-1.3,4.2-3.7,4.6v2H97v-2c-2.8-0.4-3.1-0.6-3.1-4.2v-9.5c0-5.9-3-9.3-7.7-9.3c-1.7,0-2.8,0.5-4.5,1.5
	c-0.7,0.4-1.3,0.8-1.9,1.2c-0.8,0.5-1.8,0-1.8-1C78,127.5,78.1,126.7,78.1,126.3L78.1,126.3z M149.1,120.2l0.9,10.5
	c0.1,0.9-0.6,1.7-1.5,1.8l-0.3,0c-0.9,0.1-1.7-0.6-1.8-1.5l-0.9-10.5c-0.1-0.9-0.9-1.6-1.8-1.5l-9.5,0.8c-0.9,0.1-1.7-0.6-1.8-1.5
	l0,0c-0.1-0.9,0.6-1.7,1.5-1.8l9.5-0.8c0.9-0.1,1.6-0.9,1.5-1.8l-0.8-9.3c-0.1-0.9,0.6-1.7,1.5-1.8l0.3,0c0.9-0.1,1.7,0.6,1.8,1.5
	l0.8,9.3c0.1,0.9,0.9,1.6,1.8,1.5l9.4-0.8c0.9-0.1,1.7,0.6,1.8,1.5l0,0c0.1,0.9-0.6,1.7-1.5,1.8l-9.4,0.8
	C149.7,118.5,149,119.3,149.1,120.2z M167.7,125.1l0.7,8.1c0.1,0.7-0.5,1.3-1.2,1.4l-0.2,0c-0.7,0.1-1.3-0.5-1.4-1.2l-0.7-8.1
	c-0.1-0.7-0.7-1.2-1.4-1.2l-7.3,0.6c-0.7,0.1-1.3-0.5-1.4-1.2l0,0c-0.1-0.7,0.5-1.3,1.2-1.4l7.3-0.6c0.7-0.1,1.2-0.7,1.2-1.4
	l-0.6-7.1c-0.1-0.7,0.5-1.3,1.2-1.4l0.2,0c0.7-0.1,1.3,0.5,1.4,1.2l0.6,7.1c0.1,0.7,0.7,1.2,1.4,1.2l7.2-0.6
	c0.7-0.1,1.3,0.5,1.4,1.2l0,0c0.1,0.7-0.5,1.3-1.2,1.4l-7.2,0.6C168.2,123.7,167.6,124.3,167.7,125.1z M108.2,126.4
	c-2.9,0-5.9,1.3-8.3,3.7c-2.2,2.2-4,5.9-4,9.6c0,6.4,4.1,11.6,11.2,11.6c2.2,0,6.5-1.1,9.8-5.9l-1-1.4c-1.9,1.7-4,2.4-6.1,2.4
	c-3.8,0-6.7-1.1-6.9-6.8c5.2-0.2,12.7-0.6,13.7-0.9c0.6-0.2,0.7-1.1,0.7-2C117.4,132.5,113.5,126.4,108.2,126.4L108.2,126.4z
	 M102.9,136.6c0.3-4.2,2.1-6.6,4.2-6.6c2.1,0,3.6,2.7,3.5,5.4c0,0.9-0.3,1-1.1,1.1c-2.2,0.1-4,0.1-6.2,0.2H102.9z M128.7,126.4
	c-3.6,1.1-6.8,1.8-10.4,2.2v1.8c2.7,0.6,3,0.9,3,3.8v12.7c0,2.3-0.1,2.6-1.2,2.6c-0.2,0-0.5,0-0.9,0c-0.4,0-0.8,0-1.3,0.1v2h15.3v-2
	c-0.9-0.1-1.6-0.1-2.2-0.1c-0.3,0-0.5,0-0.8,0c-1.4,0-1.6-0.2-1.6-2.5v-10.8c0-0.2,0-0.3,0.1-0.5c1-2,2.4-2.7,3.2-2.7
	c1,0,1.7,0.9,2.7,1.7c0.3,0.2,0.6,0.4,1.1,0.4c0.2,0,0.4,0,0.7-0.2c0.9-0.5,3-2.1,3-4.9c0-2-1.6-3.5-3.8-3.5c-1.8,0-3.4,1.2-5.3,3.6
	c-0.6,0.8-1.8,0.4-1.8-0.6V126.4L128.7,126.4z"/>
</svg>
