<?xml version="1.0" encoding="utf-8"?>
<!-- Generator: Adobe Illustrator 27.3.1, SVG Export Plug-In . SVG Version: 6.00 Build 0)  -->
<svg version="1.1" id="Layer_1" xmlns="http://www.w3.org/2000/svg" xmlns:xlink="http://www.w3.org/1999/xlink" x="0px" y="0px"
	 width="207.3px" height="79.1px" viewBox="0 0 207.3 79.1" style="enable-background:new 0 0 207.3 79.1;" xml:space="preserve">
<style type="text/css">
	.st0{fill:#F2F2F2;}
	.st1{fill:url(#SVGID_1_);}
</style>
<g>
	<path class="st0" d="M11.5,79.1h184.2c6.4,0,11.5-5.2,11.5-11.5v-56c0-6.4-5.2-11.5-11.5-11.5H11.5C5.2,0,0,5.2,0,11.5v56
		C0,73.9,5.2,79.1,11.5,79.1z"/>
	<linearGradient id="SVGID_1_" gradientUnits="userSpaceOnUse" x1="10.7274" y1="35.3243" x2="198.7271" y2="35.3243">
		<stop  offset="7.077350e-02" style="stop-color:#90278E"/>
		<stop  offset="0.9876" style="stop-color:#EB008B"/>
	</linearGradient>
	<path class="st1" d="M36.6,19.4c-2.9,0.8-3.7,1.6-7.5,2v1.9c7.5-1.3,0,0.8,0,3.8v6.4c0,0.1-0.1,0.2-0.2,0.2
		c-0.9-0.1-1.7-0.1-2.1-0.1c-9,0-16.1,6.3-16.1,14.3c0,8.6,7,12.9,11.9,12.9c0.6,0,1.5-0.2,2.9-1c1-0.6,2.2-1.4,3.2-2.1
		c0.1-0.1,0.3,0,0.3,0.2v2.8c0,0.1,0.1,0.2,0.3,0.2c4.5-1.3,6.3-2.2,11.1-2.2v-1.9l-1.3-0.2c-2.2-0.3-2.6-0.6-2.6-3.7V26.2
		C36.6,23.7,36.6,21.7,36.6,19.4L36.6,19.4z M25.9,56.3c-2.6-0.1-6.8-2.8-6.8-10.4c0-8.4,3.9-9.6,5.7-9.6c2.2,0,3.7,1.3,4.3,2.9
		c0,0,0,0.1,0,0.1v16c0,0.1,0,0.1-0.1,0.2C27.8,56.1,26.9,56.3,25.9,56.3L25.9,56.3z M48.6,23.3c-2.3,0-4.2,1.7-4.2,4.1
		c0,2.3,2,4.1,4.2,4.1c2.4,0,4.2-1.9,4.2-4.1C52.8,25,50.9,23.3,48.6,23.3L48.6,23.3z M52.7,33.6c-3.2,0.9-6.8,1.7-10.5,2.1v1.9
		c2.7,0.3,3,0.6,3,4.5v9.8c0,4.1-0.3,4.3-3.5,4.8v2h14.6v-2c-3.4-0.4-3.6-0.8-3.6-4.8V40.8C52.7,38.4,52.7,36,52.7,33.6L52.7,33.6z
		 M68.5,33.5c-3.2,1-7.2,1.8-10.6,2.2v1.9c2.6,0.5,3,0.7,3,4.2v10.6c0,3.8-0.3,3.8-3.4,4.3v2h14.3v-2c-2.4-0.3-3.5-0.6-3.5-4.1V40.5
		c0-0.4,0.2-0.7,0.5-0.9c1.3-0.9,2.5-1.4,3.9-1.4c2,0,4.1,1.3,4.1,5.4V52c0,4-1.3,4.2-3.7,4.6v2h14.3v-2c-2.8-0.4-3.1-0.6-3.1-4.2
		V43c0-5.9-3-9.3-7.7-9.3c-1.7,0-2.8,0.5-4.5,1.5c-0.7,0.4-1.3,0.8-1.9,1.2c-0.8,0.5-1.8,0-1.8-1C68.4,34.6,68.5,33.9,68.5,33.5
		L68.5,33.5z M99.5,33.5c-3.2,1-7.2,1.8-10.6,2.2v1.9c2.6,0.5,3,0.7,3,4.2v10.6c0,3.8-0.3,3.8-3.4,4.3v2h14.3v-2
		c-2.4-0.3-3.5-0.6-3.5-4.1V40.5c0-0.4,0.2-0.7,0.5-0.9c1.3-0.9,2.5-1.4,3.9-1.4c2,0,4.1,1.3,4.1,5.4V52c0,4-1.3,4.2-3.7,4.6v2h14.3
		v-2c-2.8-0.4-3.1-0.6-3.1-4.2V43c0-5.9-3-9.3-7.7-9.3c-1.7,0-2.8,0.5-4.5,1.5c-0.7,0.4-1.3,0.8-1.9,1.2c-0.8,0.5-1.8,0-1.8-1
		C99.5,34.6,99.5,33.9,99.5,33.5L99.5,33.5z M170.5,27.4l0.9,10.5c0.1,0.9-0.6,1.7-1.5,1.8l-0.3,0c-0.9,0.1-1.7-0.6-1.8-1.5
		l-0.9-10.5c-0.1-0.9-0.9-1.6-1.8-1.5l-9.5,0.8c-0.9,0.1-1.7-0.6-1.8-1.5v0c-0.1-0.9,0.6-1.7,1.5-1.8l9.5-0.8
		c0.9-0.1,1.6-0.9,1.5-1.8l-0.8-9.3c-0.1-0.9,0.6-1.7,1.5-1.8l0.3,0c0.9-0.1,1.7,0.6,1.8,1.5l0.8,9.3c0.1,0.9,0.9,1.6,1.8,1.5
		l9.4-0.8c0.9-0.1,1.7,0.6,1.8,1.5v0c0.1,0.9-0.6,1.7-1.5,1.8l-9.4,0.8C171.1,25.6,170.5,26.4,170.5,27.4z M189.1,32.2l0.7,8.1
		c0.1,0.7-0.5,1.3-1.2,1.4l-0.2,0c-0.7,0.1-1.3-0.5-1.4-1.2l-0.7-8.1c-0.1-0.7-0.7-1.2-1.4-1.2l-7.3,0.6c-0.7,0.1-1.3-0.5-1.4-1.2v0
		c-0.1-0.7,0.5-1.3,1.2-1.4l7.3-0.6c0.7-0.1,1.2-0.7,1.2-1.4l-0.6-7.1c-0.1-0.7,0.5-1.3,1.2-1.4l0.2,0c0.7-0.1,1.3,0.5,1.4,1.2
		l0.6,7.1c0.1,0.7,0.7,1.2,1.4,1.2l7.2-0.6c0.7-0.1,1.3,0.5,1.4,1.2v0c0.1,0.7-0.5,1.3-1.2,1.4l-7.2,0.6
		C189.6,30.9,189.1,31.5,189.1,32.2z M129.7,33.6c-2.9,0-5.9,1.3-8.3,3.7c-2.2,2.2-4,5.9-4,9.6c0,6.4,4.1,11.6,11.2,11.6
		c2.2,0,6.5-1.1,9.8-5.9l-1-1.4c-1.9,1.7-4,2.4-6.1,2.4c-3.8,0-6.7-1.1-6.9-6.8c5.2-0.2,12.7-0.6,13.7-0.9c0.6-0.2,0.7-1.1,0.7-2
		C138.8,39.7,134.9,33.6,129.7,33.6L129.7,33.6z M124.4,43.7c0.3-4.2,2.1-6.6,4.2-6.6c2.1,0,3.6,2.7,3.5,5.4c0,0.9-0.3,1-1.1,1.1
		c-2.2,0.1-4,0.1-6.2,0.2H124.4z M150.2,33.5c-3.6,1.1-6.8,1.8-10.4,2.2v1.8c2.7,0.6,3,0.9,3,3.8V54c0,2.3-0.1,2.6-1.2,2.6
		c-0.2,0-0.5,0-0.9,0c-0.4,0-0.8,0-1.3,0.1v2h15.3v-2c-0.9-0.1-1.6-0.1-2.2-0.1c-0.3,0-0.5,0-0.8,0c-1.4,0-1.6-0.2-1.6-2.5V43.2
		c0-0.2,0-0.3,0.1-0.5c1-2,2.4-2.7,3.2-2.7c1,0,1.7,0.9,2.7,1.7c0.3,0.2,0.6,0.4,1.1,0.4c0.2,0,0.4,0,0.7-0.2c0.9-0.5,3-2.1,3-4.9
		c0-2-1.6-3.5-3.8-3.5c-1.8,0-3.4,1.2-5.3,3.6c-0.6,0.8-1.8,0.4-1.8-0.6V33.5L150.2,33.5z"/>
</g>
</svg>
